<?xml version="1.0" encoding="UTF-8" standalone="no"?>
<svg
   xmlns:sketch="http://www.bohemiancoding.com/sketch/ns"
   xmlns:dc="http://purl.org/dc/elements/1.1/"
   xmlns:cc="http://creativecommons.org/ns#"
   xmlns:rdf="http://www.w3.org/1999/02/22-rdf-syntax-ns#"
   xmlns:svg="http://www.w3.org/2000/svg"
   xmlns="http://www.w3.org/2000/svg"
   xmlns:sodipodi="http://sodipodi.sourceforge.net/DTD/sodipodi-0.dtd"
   xmlns:inkscape="http://www.inkscape.org/namespaces/inkscape"
   width="135px"
   height="140px"
   viewBox="0 0 135 140"
   version="1.1"
   id="svg2"
   inkscape:version="0.48.4 r9939"
   sodipodi:docname="analytics.svg">
  <metadata
     id="metadata25">
    <rdf:RDF>
      <cc:Work
         rdf:about="">
        <dc:format>image/svg+xml</dc:format>
        <dc:type
           rdf:resource="http://purl.org/dc/dcmitype/StillImage" />
      </cc:Work>
    </rdf:RDF>
  </metadata>
  <sodipodi:namedview
     pagecolor="#ffffff"
     bordercolor="#666666"
     borderopacity="1"
     objecttolerance="10"
     gridtolerance="10"
     guidetolerance="10"
     inkscape:pageopacity="0"
     inkscape:pageshadow="2"
     inkscape:window-width="1855"
     inkscape:window-height="1056"
     id="namedview23"
     showgrid="false"
     inkscape:zoom="1.6857143"
     inkscape:cx="20.042373"
     inkscape:cy="70"
     inkscape:window-x="65"
     inkscape:window-y="24"
     inkscape:window-maximized="1"
     inkscape:current-layer="svg2" />
  <title
     id="title4">svg-workshop</title>
  <description
     id="description6">Created with Sketch (http://www.bohemiancoding.com/sketch)</description>
  <defs
     id="defs8" />
  <g
     id="Page-1"
     stroke="none"
     stroke-width="1"
     fill="none"
     fill-rule="evenodd"
     sketch:type="MSPage"
     style="fill:#cccccc">
    <g
       id="noun_49675_cc"
       sketch:type="MSLayerGroup"
       transform="translate(21.000000, 20.000000)"
       style="fill:#cccccc">
      <g
         id="Group"
         sketch:type="MSShapeGroup"
         style="fill:#cccccc">
        <path
           d="M25.315,63.165 C20.904,58.39 18.202,52.013 18.202,45 C18.202,30.2 30.2,18.202 45,18.202 C50.927,18.202 56.398,20.134 60.835,23.392 C61.245,23.693 61.646,24.003 62.038,24.326 L74.398,10.95 C74.015,10.619 73.624,10.296 73.23,9.978 C65.509,3.745 55.696,0 45,0 C20.147,0 0,20.147 0,45 C0,57.521 5.13,68.831 13.384,76.987 L25.198,63.299 L25.315,63.165 L25.315,63.165 Z"
           id="Shape"
           fill="#FFFFFF"
           style="fill:#cccccc" />
        <path
           d="M62.77,65.047 C58.04,69.244 51.82,71.798 45,71.798 C41.572,71.798 38.297,71.148 35.285,69.973 L35.204,70.126 L26.777,86.137 C32.349,88.611 38.51,90 45,90 C57.198,90 68.25,85.135 76.354,77.254 L62.902,65.166 L62.77,65.047 L62.77,65.047 Z"
           id="path14"
           fill="#FFFFFF"
           style="fill:#cccccc" />
        <path
           d="M77.684,14.098 C77.336,13.73 76.982,13.368 76.622,13.012 L64.266,26.385 C64.619,26.75 64.959,27.126 65.291,27.511 C69.342,32.205 71.798,38.313 71.798,45 C71.798,50.794 69.953,56.152 66.827,60.535 C66.532,60.948 66.227,61.354 65.91,61.75 C65.593,62.145 65.269,62.534 64.931,62.91 L78.469,75.075 C78.807,74.699 79.133,74.312 79.458,73.924 C79.784,73.536 80.1,73.142 80.413,72.743 C86.411,65.098 90,55.472 90,45 C90,33.027 85.31,22.159 77.684,14.098 L77.684,14.098 Z"
           id="path16"
           fill="#FFFFFF"
           style="fill:#cccccc" />
        <path
           d="M31.198,67.967 C30.763,67.705 30.335,67.43 29.917,67.144 L29.952,67.078 L29.903,67.134 C29.484,66.847 29.073,66.549 28.671,66.239 C28.27,65.93 27.878,65.61 27.496,65.28 L15.606,79.056 C15.989,79.387 16.388,79.698 16.782,80.015 L17.903,81.038 L17.976,80.954 C19.083,81.788 20.229,82.572 21.413,83.303 C21.843,83.569 22.282,83.822 22.722,84.073 C23.161,84.324 23.595,84.583 24.043,84.819 L32.52,68.712 C32.071,68.477 31.631,68.228 31.198,67.967 L31.198,67.967 Z"
           id="path18"
           fill="#F9A528"
           style="fill:#cccccc" />
      </g>
    </g>
    <g
       id="noun_22662_cc"
       sketch:type="MSLayerGroup"
       transform="translate(-144.000000, 30.000000)"
       fill="#000000"
       style="fill:#cccccc">
      <path
         d="M153,80 L153,87"
         id="path21"
         sketch:type="MSShapeGroup"
         style="fill:#cccccc" />
    </g>
  </g>
  <path
     style="fill:#ffd42a;fill-opacity:1"
     d="m 40.913257,101.93866 c -2.017122,-1.30373 -3.662854,-2.576447 -3.657183,-2.828265 0.0057,-0.251819 1.540629,-2.202405 3.411017,-4.334636 1.870388,-2.132231 4.376764,-5.020777 5.569724,-6.418991 l 2.169019,-2.542208 2.124485,1.376618 c 1.168468,0.75714 2.12779,1.619344 2.131829,1.916008 0.0082,0.604588 -6.94969,14.035064 -7.639719,14.746504 -0.242922,0.25046 -2.09205,-0.6113 -4.109172,-1.91503 z"
     id="path3002"
     inkscape:connector-curvature="0" />
  <path
     style="fill:#ffd42a;fill-opacity:1"
     d="M 95.665992,91.372796 C 94.02805,89.830047 91.288497,87.285981 89.578095,85.719317 l -3.109821,-2.848479 1.849075,-2.687539 c 3.163559,-4.598075 4.354257,-8.693487 4.374962,-15.047706 0.02167,-6.650523 -1.007358,-10.15778 -4.526496,-15.427731 l -2.369413,-3.548224 5.795531,-6.232361 c 3.187542,-3.427799 5.944792,-6.22755 6.127222,-6.221668 1.370271,0.04417 7.639255,9.640164 9.681665,14.819815 2.6193,6.642655 3.04722,8.936726 3.043,16.313559 -0.004,7.792161 -0.87616,12.055755 -3.76951,18.436906 -2.0572,4.537044 -6.3406,10.931962 -7.310821,10.914705 -0.395681,-0.0071 -2.059555,-1.27505 -3.697497,-2.817798 l 0,0 z"
     id="path3004"
     inkscape:connector-curvature="0" />
</svg>
